<svg version="1" xmlns="http://www.w3.org/2000/svg" width="533.333" height="533.333" viewBox="0 0 400.000000 400.000000"><path d="M180.2 17.5c-6.4 1.9-11.4 5.8-14.6 11.3-2.4 4.1-4.1 5.5-10 8.6-11.5 5.8-14.1 4.7-13.9-6l.2-6.4-4.1 2.2c-5.8 3.3-10.5 8.9-12.2 14.8-1.1 3.8-2.8 6.2-6.7 9.8-7 6.5-8.9 7.4-12 5.9-1.8-1-2.7-2.7-3.9-7.6l-1.5-6.3-4.3 4.6C91.9 54.1 90 58.5 90 64.6c0 3.8-.8 5.8-4.7 11.6-7 10.4-10.4 10.9-15 2.2-1.5-3-3.1-5.4-3.5-5.4-.4 0-2 2.4-3.4 5.2-2.9 5.6-3.9 13.6-2.4 18.8.6 2.2.2 4.7-2 10.6-3.4 9-3.9 9.6-7.6 9.6-1.9 0-3.8-1.2-6.9-4.8l-4.3-4.9-1.7 5.8c-2.1 7.2-1.8 11.9 1.2 17.9 1.5 3.2 2.1 5.8 1.8 8-.3 1.8-.7 5.5-1 8.3-.3 3.5-1.1 5.5-2.6 6.8-2.6 2.1-4.9 1.6-10.3-2.4-4.9-3.5-5.5-2.8-5 5.7.3 6.8 1.1 8.9 5.6 14.5 2.9 3.7 4.2 9.1 4.3 18.4 0 3.3-.4 4.2-2.7 5.2-2.3 1.2-3.4 1-7.9-.7-2.8-1.1-5.4-1.8-5.7-1.5-1 1 1.9 11.2 4.2 14.6 1.3 1.9 4 4.6 6 6 2.9 1.9 4.3 4 6.6 10.1 3.5 9.1 3.6 9.9 1 12.3-1.6 1.5-3 1.6-8 1.1-6.7-.8-7-.4-4.4 4.7 3.2 6.3 6.6 9.7 11.9 12.1 3.9 1.8 6.4 4 9.3 7.8 5.6 7.5 6.4 9.2 5.3 12.1-1 2.7-2.9 3.7-6.9 3.7-3.4 0-7.2 1-7.2 1.9.1 1.1 6.4 7.7 9.7 10 1.7 1.2 5.1 2.4 7.5 2.7 4.4.6 7.4 1.8 9.4 3.8.6.6 2.7 2.5 4.6 4.2 7.7 6.8 6.9 11-2.6 14-3 1-5.3 2.1-5.1 2.5.3.4 3.1 2.4 6.2 4.5 5.3 3.5 6.2 3.8 13.7 3.9 7.2.1 8.8.5 14.1 3.4 8.3 4.6 8.6 5 8.3 8.5-.2 2.5-1.3 3.8-5.6 6.5l-5.3 3.5 3.7 1.8c7.1 3.4 13.9 3.9 21.1 1.4 3.3-1.1 4.9-1 11.8.6 11.8 2.9 13.4 6.3 6.4 13.6-2.3 2.4-4 4.5-3.7 4.7.7.7 7.2 1.7 11.1 1.6 4.7 0 7.2-.8 11.9-3.7 2.9-1.9 5.2-2.4 11-2.5 10-.2 10.4-.1 12.3 1.8 2.1 2.1 1.5 5.8-2 11.3l-2.5 4h3.8c6.9 0 14-2.8 18.5-7.3 3.4-3.4 5.5-4.5 11.2-6 8.7-2.2 10.8-2.2 12.8 0 1.9 2.2 1.9 2 .1 8.5-.7 2.9-1.4 5.6-1.4 6 0 1.3 9.1-2 12.9-4.6 2-1.4 4.9-4.7 6.5-7.4 2.3-3.9 4.1-5.5 9.9-8.5 11.2-5.8 14.1-4.8 14 5.1 0 3.1.1 6 .4 6.5.6 1 8.5-4.6 11.7-8.3 1.4-1.7 3.3-5.5 4.1-8.3 1.2-4.1 2.6-6.2 6.8-9.8 7.2-6.3 8.8-7 11.8-5.6 1.8 1 2.7 2.7 3.9 7.6l1.5 6.3 4.3-4.6c5.3-5.8 7.2-10.1 7.2-16.4 0-4.2.7-5.8 4.9-11.9 7-10 10.3-10.4 14.8-1.7 1.5 2.9 3.2 5.4 3.6 5.4.4 0 2.2-3 3.9-6.6 3-6.5 3.1-7 2.1-13.8-.9-6.5-.7-7.6 1.8-14.4 4.3-11.6 7.3-12.5 14.6-4.4l4.1 4.7 1.7-5.8c2.1-7.2 1.8-11.9-1.2-17.9-1.5-3.2-2.1-5.8-1.8-8 .2-1.8.7-5.6 1-8.3.3-3.5 1.1-5.5 2.6-6.8 2.6-2.1 4.9-1.6 10.3 2.4 2.1 1.6 4.2 2.6 4.6 2.4 1.1-.7.2-14.2-1.1-16.7-.7-1.3-2.5-3.9-4-5.8-3-3.7-3.6-5.8-4.5-15.7-.6-5.8-.5-6.2 2.1-7.9 2.5-1.6 2.8-1.6 7.8.4 2.9 1.2 5.6 2.2 6.1 2.2 1 0-.2-7.3-1.8-10.9-2-4.6-4.7-8-8.1-10.1-2.7-1.7-4-3.7-6.4-10-3.6-9.2-3.7-10.3-1.4-12.5 1.4-1.4 2.8-1.6 8.5-1l6.9.6-2.5-4.9c-3.7-7.4-7-10.7-12.8-13.1-4.6-1.9-6-3.2-10-9.3-2.7-3.9-4.8-7.7-4.8-8.5 0-.7.9-2.2 2-3.3 1.8-1.8 3.5-2.2 10.8-2.3 3-.1 2.7-1.5-1.1-5.8-4.6-5.2-9-7.9-13.9-8.5-4.4-.6-7.4-1.8-9.4-3.8-.6-.6-2.7-2.5-4.6-4.2-7.8-6.8-7-10.9 2.8-14l5.7-1.8-2.9-2.3c-6.1-5-10.6-6.7-17.9-6.8-7.1-.1-10.8-1.3-18.8-6.2-3.3-2.1-3.8-2.8-3.5-5.6.2-2.6 1.2-3.8 5.1-6.3 2.6-1.7 5-3.4 5.3-3.6.2-.3-2.3-1.6-5.8-2.9-7-2.6-12.3-2.7-18.5-.5-3 1-5.1 1.2-7.5.5-1.8-.5-5.2-1.3-7.5-1.9-8.4-2.1-9.4-6.3-3.2-12.8 2.3-2.3 3.9-4.5 3.6-4.8-1.2-1.2-11.3-2-15-1.2-2.1.5-5.7 2-7.9 3.5-3.7 2.3-5.2 2.6-13 2.6-7.5 0-9.1-.3-10.3-1.9-2-2.4-1.3-6.2 2.1-11.5l2.6-4.2-5.9.5c-7.6.7-12.1 2.7-16.9 7.4-3.1 3.1-5.4 4.3-10.9 5.7-9 2.2-11.1 2.2-12.9-.4-1.5-2.2-1.5-2.8.4-9.8.6-2.3 1-4.4.8-4.6-.2-.1-2.2.3-4.6 1zm42.7 37.4c72 11.2 125.2 70.9 126.5 141.8.2 11-.1 15.6-2 28.6-2.1 14.9-10.4 36.5-19.7 51.2-11.7 18.7-30.1 36.9-48.7 48.2-24.8 15-50.8 22.1-79.8 21.8-15.6-.2-24.7-1.3-37.2-4.5-42.1-10.7-77.9-39.8-96.8-78.6-9.7-19.8-14.2-38.4-14.6-60.1-.5-25.2 3.7-44.6 14.6-66.8C87.1 91.8 131.9 60 181 54.4c3-.3 5.6-.7 5.8-.9.8-.7 29.6.4 36.1 1.4z"/><path d="M185.8 68.5c-.2.2-2.4.6-5.1.9-18.8 2.2-42.4 12-59.1 24.5-26 19.5-42 43.9-50.3 76.5-3.1 12.4-4 37.1-1.8 50.1 5.8 35 23.7 64.3 52.1 85.5 10.4 7.8 31.2 18.5 39.9 20.4.6.2 2.8.8 5 1.4 2.2.6 5.4 1.4 7 1.6 1.7.3 4.1.8 5.5 1.2 5.8 1.4 32.7 1.4 41-.1 20.6-3.4 36.8-9.8 53.3-20.9 8-5.4 9.3-6.4 17.4-13.7 18.2-16.5 34.6-46 38.9-69.9.3-1.9.8-4.6 1.1-6 1.2-6.2 1.1-33-.2-40.5-9.4-56.6-52.6-100.2-109-109.8-6.8-1.2-34.8-2.1-35.7-1.2zm30.1 33.6c20.2 3 39 12.7 54.2 27.8 19 19.1 29.1 43.4 29.1 70.2-.1 12.6-3.2 30.4-5.3 29.7-1.1-.4-18-17-25.4-24.9-4.9-5.2-12-13.7-21.8-25.9-9.5-11.9-27.1-39.4-33.9-53.2l-3.8-7.6-13.9-.1c-14.3-.1-15.3.1-15.7 3.9-.9 7.1-1.6 12.7-1.9 14-.1.8-.5 3.1-.9 5.1-.5 3.3-3.1 16.5-7.1 35.9-6.1 29.8-20.3 71.5-23.7 69.4-3.3-2.1-9.5-22.6-9.3-30.5l.2-4.9H127v24c0 22.5-.1 24.1-2 26-1.9 1.9-2 1.9-6.4-4.3-20.9-29.5-23.6-69-7-102 4.7-9.2 10.6-17 18.9-25.2 10.5-10.2 13.6-12.4 25.9-18.4 19.1-9.5 37.8-12.3 59.5-9zm-4.4 48.6c0 17.8-.2 22-1.2 21.1-1-.8-1.3-6.6-1.3-24.2.1-18.5.3-22.7 1.3-21.1.8 1.4 1.2 8.6 1.2 24.2zm-11.2-17.6c1.3 1.6 1.7 3.6 1.6 7.1-.3 4.7-.3 4.8-3.4 4.8-2.9 0-3.4-.5-5.9-6.1-1.5-3.4-2.5-6.7-2.2-7.4.8-2.2 7.8-1 9.9 1.6zm16.6 5.9c1.6 3 1.8 6.2 1.8 24.2 0 11.5 0 20.8-.1 20.8s-1.3-1.5-2.7-3.3c-2.4-3.2-2.4-3.5-2.5-25.5-.1-13.2.3-21.8.8-21 .5.7 1.7 2.9 2.7 4.8zm-28.9 1.1c0 6.8-1.6 6.2-1.8-.6 0-3.2.3-5.3.9-5 .5.4.9 2.8.9 5.6zm-8.6 16.2c-.2 19.5-.6 21.4-1.3 5.7-.6-13.2-.3-21 .8-21 .3 0 .5 6.9.5 15.3zm12.6-12.1c0 .5-.4.8-1 .8-.5 0-1-1-1-2.3 0-1.8.2-1.9 1-.7.5.8 1 1.8 1 2.2zm32.7 7.5c2.7 4.6 2.7 4.7 2.8 25 0 11.1-.2 20.3-.4 20.3-.6 0-3-3.2-4.8-6.5-1.4-2.5-1.7-6.3-1.8-23.7-.1-11.4.2-20.5.7-20.2.4.3 2 2.6 3.5 5.1zm-47.8 33.2c-.1 18-.5 33.4-1 34.2-.5.8-.9-11-.9-29.1 0-27 .5-38 1.6-38 .2 0 .3 14.8.3 32.9zm21.4-17.8c.1 7.2-.2 8.4-1.6 8.7-1.5.3-1.7-.7-1.7-8.6 0-4.9.3-9.2.7-9.6 1.6-1.5 2.4 1.6 2.6 9.5zm-5.3-.1c0 7.3-.3 9-1.5 9s-1.5-1.7-1.5-9 .3-9 1.5-9 1.5 1.7 1.5 9zm45 24.9v20.5l-4.5-6.2-4.5-6.2v-41.4l4.5 6.4 4.5 6.4v20.5zM188 168c0 4.4-.4 8-.9 8-.9 0-1.3-11.3-.5-14.3 1-3.4 1.4-1.6 1.4 6.3zm14 1.7c0 3.5-.4 6.3-.9 6.3-.6 0-1-3.5-1-7.7 0-5.2.3-7.2.9-6.3.6.8 1 4.3 1 7.7zm-29 56.1c-1.1 2-1.4-50.7-.2-55.9.4-1.9.8 9.6 1 25.4.1 17.6-.2 29.5-.8 30.5zm72.1-45.1l4.2 5.7.1 19.8c.1 10.9 0 19.8 0 19.8-.1 0-2.3-2.5-5-5.6l-4.7-5.6-.2-19.2c-.1-17.7.1-20.6.9-20.6.2 0 2.3 2.6 4.7 5.7zm-33.6 33.4c0 27.3-.3 35.3-1.2 35.7-1 .3-1.3-7.5-1.3-37 .1-30.2.3-37 1.3-35.6 1 1.2 1.3 10 1.2 36.9zM170 232.4c-1.2 1.2-1.4-41.5-.2-47.9.4-2.3.8 6.7 1 21.4.1 16.3-.1 25.8-.8 26.5zm47.7-43.9c.6 1.2 1 13.2.9 31.5-.1 31.6.2 29.8-4.4 29.1-.5 0-.9-15.1-.9-33.5 0-31.6.1-33.3 1.7-31.3.9 1.2 2.2 3.1 2.7 4.2zM193 198.8c0 9-.3 10.9-1.5 10.9s-1.5-1.8-1.5-10.2c0-5.6.3-10.5.7-10.8 1.8-1.9 2.3.2 2.3 10.1zm5.1-5.9c.2 7.6-.1 15.3-.7 16.2-1.5 2.5-2.4-1.2-2.4-10.6 0-8.9.2-10.4 1.5-9.9.9.4 1.5 2 1.6 4.3zm59.3 3l4.6 5.5v19.5l-.1 19.6-5.4-6-5.5-6v-19.9c0-11.9.4-19.6.9-19.1.5.6 3 3.4 5.5 6.4zM188 200c0 5-.4 9-1 9-.9 0-1.2-13-.3-16.3.9-3.5 1.3-1.5 1.3 7.3zm13.6.4c0 4.6-.4 8.8-.8 9.2-.5.4-.8-3.6-.8-9s.4-9.5.9-9.2c.5.3.8 4.4.7 9zM168 214.9c.1 11.7-.1 21.5-.4 21.9-.3.3-.6-9.5-.6-21.8s.2-22.1.5-21.9c.2.3.5 10.1.5 21.8zm59.4 11.1c-.1 12.4-.2 22.8-.3 23.1-.1.5-3.5.5-6.1 0-.5-.1-.6-53.8-.1-55 0-.2 1.6 1.9 3.4 4.5l3.3 4.9-.2 22.5zm-62.3 14.8c-1.2 2-1.5-31.7-.3-36.9.4-2 .8 4.3 1 15.9.1 11.5-.2 20-.7 21zm108-25.3c0 1.1.1 9.3.2 18.2.2 18.4-.2 19.4-6.2 12.6l-3.3-3.8V224c0-10.2.1-19 .1-19.5.2-1.8 9.1 8.9 9.2 11zm-39.2-4l4.1 5.4v31.9l-4.1.4c-2.2.2-4.2.1-4.5-.1-.5-.5-.5-43.1 0-43.1.2 0 2.2 2.5 4.5 5.5zm-71.8 33.3c-1.2 2-1.5-28.6-.3-31.5.4-1 .8 5.3 1 14 .1 9.2-.2 16.5-.7 17.5zm-28.3-27c.3 1.7-.1 2.2-2.1 2.2-3.1 0-3.8-.9-2.6-3.2 1.3-2.5 4.3-1.9 4.7 1zm151.9 8.1c2.1 2 2.5 3.3 2.7 10.2.1 4.7-.3 9.1-1 10.9-1.2 2.8-1.6 3-6.9 3H275v-34.4l4.1 3.9c2.3 2.2 5.2 5.1 6.6 6.4zm-37.4 4.6c1.2 2.6 1.4 7 .8 17-.1 1.7-.7 2-4.3 1.8-2.4-.1-4.5-.2-4.8-.2-.4-.1-.5-22.7-.1-28 .1-1.8 6.5 5.4 8.4 9.4zm-88.6 10.2c-.2 3.8-.3.7-.3-6.7s.1-10.5.3-6.8c.2 3.8.2 9.8 0 13.5zm33.3-5.2c0 12.2-.2 14.5-1.5 14.5s-1.5-2.3-1.5-14.5.2-14.5 1.5-14.5 1.5 2.3 1.5 14.5zm5.1-12.3c.1 3.3.1 20.8 0 24-.1 1.8-.6 2.8-1.6 2.8-1.3 0-1.5-2.3-1.5-14.5s.2-14.5 1.5-14.5c.9 0 1.5.9 1.6 2.2zM176.8 237c0 7.7-.4 14-.9 14s-.9-5.6-.9-12.4c0-11 .5-15.6 1.6-15.6.2 0 .3 6.3.2 14zm-42.8-8.4c0 2-.5 2.4-2.9 2.4-2.5 0-2.8-.3-2.3-2.8.3-1.5 1-3 1.6-3.4 1.6-1 3.6 1.1 3.6 3.8zm53.1 21.7c-1.1 1.1-1.3-24.1-.2-25.8.3-.6.7 4.8.9 11.9.1 7.4-.2 13.4-.7 13.9zm14.8-12.7c0 6.8-.5 12.4-1 12.4s-.8-5.8-.7-13c.1-7.1.5-12.7 1-12.4.5.3.8 6.1.7 13zM157 249.4c-.7.7-1-1.9-1-8.4 0-13.9 1.4-16.7 1.8-3.6.2 6.6-.1 11.3-.8 12zm17-9.4c0 6.7-.4 11-1 11s-1-3.8-1-9.4c0-8.5.5-12.6 1.6-12.6.2 0 .4 4.9.4 11zm119-6.1c-.1.9-.7 2.9-1.5 4.6-1.3 3-1.3 2.9-1.4-2.9-.1-5.1.1-5.7 1.4-4.6.8.7 1.5 2 1.5 2.9zM137.5 232c.3.5.1 1-.4 1-.6 0-1.1-.5-1.1-1 0-.6.2-1 .4-1 .3 0 .8.4 1.1 1zm.3 5.1c-1.2.8-.4 1.3 1.5 1 .4 0 .7 3.2.7 7.3 0 6.5-.2 7.4-1.7 7.2-1.6-.3-1.8-1.5-1.9-9.4 0-7.6.2-8.9 1.3-8 1.1.9 1.2 1.3.1 1.9zm119.5 2.5c2.7 3.2 4.7 6.4 4.7 7.8 0 2.1-.4 2.3-5.5 2.4H251v-7.9c0-4.3.3-7.9.8-7.8.4 0 2.8 2.5 5.5 5.5zm-123.5-.5c.3 3.3.1 3.6-2 3.5-2.6-.1-4-3.2-2.6-5.9 1.6-3.1 4.3-1.6 4.6 2.4zm21.2 4c0 4.4-.3 7.8-.8 7.6-1-.7-.8-15.7.3-15.7.3 0 .5 3.6.5 8.1zm16-.1c0 4.7-.4 8-1 8-1.1 0-1.4-11.8-.4-14.4 1.1-2.9 1.4-1.7 1.4 6.4zm-3.3 6.2c-.2 1.8-.4.4-.4-3.2s.2-5 .4-3.3c.2 1.8.2 4.8 0 6.5zm-15.1-3.2c0 2.7-.4 5-.8 5-.5 0-.8-2.3-.8-5 0-2.8.4-5 .8-5 .5 0 .8 2.2.8 5zm-8.9 1.2c1 1.1 1.1 1.8.4 2.3-.6.3-1.2-.2-1.2-1.2-.1-1-.5-.5-.9 1.2-.7 2.6-.8 2.3-.8-2 0-2.8.2-4.3.5-3.5.3.8 1.2 2.2 2 3.2zm22.3.3c0 2.5-.4 4.5-1 4.5-1.1 0-1.4-7.3-.3-8.3 1.1-1.2 1.3-.8 1.3 3.8zm-16 0c0 1.7-.4 2.3-1.5 1.9-1.1-.5-1.2-1.1-.4-2.5 1.3-2.6 1.9-2.4 1.9.6zm-16 4.6c0 4.6-.2 4.9-2.5 4.9-2.6 0-2.8-.6-2.7-6.4.1-3.1 1.7-4.7 3.9-3.9.8.3 1.3 2.2 1.3 5.4zm29-2.6c0 1.4-.4 2.5-1 2.5-1.1 0-1.4-3.3-.3-4.3 1.1-1.1 1.3-.8 1.3 1.8zm102.4-1c.3.8.1 1.5-.3 1.5-.5 0-1.1-.7-1.5-1.5-.3-.8-.1-1.5.3-1.5.5 0 1.1.7 1.5 1.5zM148.1 251c2.8 1.5 2.3 2.7-1.3 3.4-3.9.8-4.3.4-2.6-2.3 1.5-2.4 1.4-2.4 3.9-1.1zm11.6 1.2c-.3.8-.6.5-.6-.6-.1-1.1.2-1.7.5-1.3.3.3.4 1.2.1 1.9zm-1.7-.2c0 .5-.5 1-1.1 1-.5 0-.7-.5-.4-1 .3-.6.8-1 1.1-1 .2 0 .4.4.4 1zm16.5 7.9c1.9.1 2 .7 1.9 17.7-.1 9.6-.4 17.8-.8 18.1-1.5 1.6-21.5-6.9-30.6-13-8.1-5.4-9-6.8-9-14.2 0-3.6.3-6.5.8-6.6.4 0 1.6-.3 2.7-.5s6.7-.7 12.5-1c5.8-.4 10.6-.7 10.7-.8.1-.1 2.3-.1 5 .1 2.6.1 5.7.2 6.8.2zm13.9 3.9c1.5 1.8 1.5 2-.4 3.7-2 1.8-2 1.8-2-1.8 0-4.3.1-4.3 2.4-1.9zm13.6 2.4v4.1l-2.5-2.3c-2.3-2.2-2.4-2.5-.8-4.2 2.5-2.8 3.3-2.2 3.3 2.4zm-68-2.2c0 .5-.5 1-1.1 1-.5 0-.7-.5-.4-1 .3-.6.8-1 1.1-1 .2 0 .4.4.4 1zm86.5.6c6.3.9 29.1 5.2 38.3 7.2l8.2 1.7-2.2 2c-13.4 11.4-32.9 20.2-51.5 23l-4.3.7v-36.4l3.8.6c2 .3 5.5.9 7.7 1.2zm-92.5.8c0 .3-.4.8-1 1.1-.5.3-1 .1-1-.4 0-.6.5-1.1 1-1.1.6 0 1 .2 1 .4zm5 1.6c0 .5-.9 1.4-1.9 1.9-1.6.9-1.8.8-1.4-.9.5-2 3.3-2.9 3.3-1zm1 3c0 .5-.5 1-1.1 1-.5 0-.7-.5-.4-1 .3-.6.8-1 1.1-1 .2 0 .4.4.4 1zm63 1.9c1.7 1.5 3 3.1 3 3.5 0 .4-1.5 2.2-3.4 4.1l-3.4 3.3-3.1-3.2c-1.7-1.7-3.1-3.5-3.1-4 0-.9 5.3-6.5 6.3-6.6.4 0 2.1 1.3 3.7 2.9zm5 14.3v5.3l-2.7-2.7-2.7-2.7 2.4-2.6c1.3-1.4 2.5-2.5 2.7-2.5.2 0 .3 2.4.3 5.2zm-12-.2c0 .3-.9 1.1-2 1.8-1.9 1.1-2 1-1.8-1.7.2-2.5.4-2.7 2-1.7 1 .6 1.8 1.3 1.8 1.6zm8.1 8.1c4.6 4.8 4.8 5.7 1.2 5.3-1.6-.2-5-.4-7.6-.5-2.6-.2-5.1-.7-5.4-1.2-.6-.9 5.5-7.7 7-7.7.5 0 2.6 1.8 4.8 4.1z"/><path d="M137 240c0 .5.5 1 1.1 1 .5 0 .7-.5.4-1-.3-.6-.8-1-1.1-1-.2 0-.4.4-.4 1zM137.9 247.2c-.6 1.2-.5 4.6.2 4.3.4-.3.7-1.4.6-2.5-.1-1.8-.5-2.5-.8-1.8z"/></svg>